<svg version="1.1" xmlns="http://www.w3.org/2000/svg">
  <defs>
    <symbol viewBox="0 0 24 24" id="ban">
        <path d="M12 .9C5.9.9.9 5.9.9 12s5 11.1 11.1 11.1 11.1-5 11.1-11.1S18.1.9 12 .9zm5.5 11.9c-.1.3-.3.6-.7.6H7.2c-.4 0-.6-.2-.7-.6v-1.6c.1-.3.3-.6.7-.6h9.6c.4 0 .6.3.7.6v1.6z"></path>
    </symbol>

    <symbol viewBox="0 0 24 24" id="check" xmlns="http://www.w3.org/2000/svg">
        <path d="M8.8 19.6L1.2 12c-.3-.3-.3-.8 0-1.1l1-1c.3-.3.8-.3 1 0L9 15.7c.1.2.5.2.6 0L20.9 4.4c.2-.3.7-.3 1 0l1 1c.3.3.3.7 0 1L9.8 19.6c-.2.3-.7.3-1 0z" />
    </symbol>
    
    <symbol viewBox="0 0 24 24" id="back" xmlns="http://www.w3.org/2000/svg">
        <path d="M22.4 10.6H7.1c-.4 0-.6-.5-.3-.8l4.4-4.4c.3-.3.3-.7 0-1l-1-1c-.3-.3-.7-.3-1 0l-8 8.1c-.3.3-.3.7 0 1l8 8.1c.3.3.7.3 1 0l1-1c.2-.3.2-.7 0-1l-4.5-4.4c-.2-.3-.1-.8.4-.8h15.3c.4 0 .7-.3.7-.7v-1.3c0-.4-.3-.8-.7-.8z" />
    </symbol>

    <symbol viewBox="0 0 24 24" id="event" xmlns="http://www.w3.org/2000/svg">
        <path d="M21.5 9.2h-19c-.3 0-.7.4-.7.7v11.3c0 1 .9 1.9 1.9 1.9h16.6c1 0 1.9-.9 1.9-1.9V9.9c0-.3-.4-.7-.7-.7zM8.8 19.4c0 .3-.2.4-.5.4H6.5c-.3 0-.5-.1-.5-.4v-1.9c0-.2.2-.4.5-.4h1.8c.3 0 .5.2.5.4v1.9zm0-4.6c0 .2-.2.4-.5.4H6.5c-.3 0-.5-.2-.5-.4v-1.9c0-.3.2-.4.5-.4h1.8c.3 0 .5.1.5.4v1.9zm4.6 4.6c0 .3-.2.4-.5.4h-1.8c-.3 0-.5-.1-.5-.4v-1.9c0-.2.2-.4.5-.4h1.8c.3 0 .5.2.5.4v1.9zm0-4.6c0 .2-.2.4-.5.4h-1.8c-.3 0-.5-.2-.5-.4v-1.9c0-.3.2-.4.5-.4h1.8c.3 0 .5.1.5.4v1.9zm4.6 4.6c0 .3-.2.4-.5.4h-1.8c-.3 0-.5-.1-.5-.4v-1.9c0-.2.2-.4.5-.4h1.8c.3 0 .5.2.5.4v1.9zm0-4.6c0 .2-.2.4-.5.4h-1.8c-.3 0-.5-.2-.5-.4v-1.9c0-.3.2-.4.5-.4h1.8c.3 0 .5.1.5.4v1.9zm2.3-11.6H18v-.9c0-.7-.6-1.4-1.4-1.4-.7 0-1.4.6-1.4 1.4v.9H8.8v-.9c0-.7-.6-1.4-1.4-1.4C6.6.9 6 1.5 6 2.3v.9H3.7c-1 0-1.9.9-1.9 1.9v1.1c0 .4.4.7.7.7h19c.3 0 .7-.3.7-.7V5.1c0-1-.9-1.9-1.9-1.9z" />
    </symbol>
  </defs>
</svg>